<?xml version="1.0" encoding="utf-8"?>
<!-- Generator: Adobe Illustrator 22.0.1, SVG Export Plug-In . SVG Version: 6.00 Build 0)  -->
<svg version="1.1" id="Vrstva_1" xmlns="http://www.w3.org/2000/svg" xmlns:xlink="http://www.w3.org/1999/xlink" x="0px" y="0px"
	 viewBox="0 0 792 792" style="enable-background:new 0 0 792 792;" xml:space="preserve">
<g>
	<g transform="translate(240,48) scale(4.12)">
		<rect x="-5.3" y="-11.7" width="6.8" height="6.8"/>
	</g>
	<g transform="translate(312,48) scale(4.12)">
		<rect x="-2.9" y="-11.7" width="6.8" height="6.8"/>
	</g>
	<g transform="translate(360,48) scale(4.12)">
		<rect x="-1.3" y="-11.7" width="6.8" height="6.8"/>
	</g>
	<g transform="translate(384,48) scale(4.12)">
		<rect x="-0.5" y="-11.7" width="6.8" height="6.8"/>
	</g>
	<g transform="translate(408,48) scale(4.12)">
		<rect x="0.3" y="-11.7" width="6.8" height="6.8"/>
	</g>
	<g transform="translate(432,48) scale(4.12)">
		<rect x="1.1" y="-11.7" width="6.8" height="6.8"/>
	</g>
	<g transform="translate(456,48) scale(4.12)">
		<rect x="1.9" y="-11.7" width="6.8" height="6.8"/>
	</g>
	<g transform="translate(480,48) scale(4.12)">
		<rect x="2.7" y="-11.7" width="6.8" height="6.8"/>
	</g>
	<g transform="translate(528,48) scale(4.12)">
		<rect x="4.3" y="-11.7" width="6.8" height="6.8"/>
	</g>
	<g transform="translate(264,72) scale(4.12)">
		<rect x="-4.5" y="-10.9" width="6.8" height="6.8"/>
	</g>
	<g transform="translate(312,72) scale(4.12)">
		<rect x="-2.9" y="-10.9" width="6.8" height="6.8"/>
	</g>
	<g transform="translate(336,72) scale(4.12)">
		<rect x="-2.1" y="-10.9" width="6.8" height="6.8"/>
	</g>
	<g transform="translate(408,72) scale(4.12)">
		<rect x="0.3" y="-10.9" width="6.8" height="6.8"/>
	</g>
	<g transform="translate(432,72) scale(4.12)">
		<rect x="1.1" y="-10.9" width="6.8" height="6.8"/>
	</g>
	<g transform="translate(504,72) scale(4.12)">
		<rect x="3.5" y="-10.9" width="6.8" height="6.8"/>
	</g>
	<g transform="translate(264,96) scale(4.12)">
		<rect x="-4.5" y="-10.1" width="6.8" height="6.8"/>
	</g>
	<g transform="translate(504,96) scale(4.12)">
		<rect x="3.5" y="-10.1" width="6.8" height="6.8"/>
	</g>
	<g transform="translate(528,96) scale(4.12)">
		<rect x="4.3" y="-10.1" width="6.8" height="6.8"/>
	</g>
	<g transform="translate(288,120) scale(4.12)">
		<rect x="-3.7" y="-9.3" width="6.8" height="6.8"/>
	</g>
	<g transform="translate(312,120) scale(4.12)">
		<rect x="-2.9" y="-9.3" width="6.8" height="6.8"/>
	</g>
	<g transform="translate(336,120) scale(4.12)">
		<rect x="-2.1" y="-9.3" width="6.8" height="6.8"/>
	</g>
	<g transform="translate(408,120) scale(4.12)">
		<rect x="0.3" y="-9.3" width="6.8" height="6.8"/>
	</g>
	<g transform="translate(432,120) scale(4.12)">
		<rect x="1.1" y="-9.3" width="6.8" height="6.8"/>
	</g>
	<g transform="translate(456,120) scale(4.12)">
		<rect x="1.9" y="-9.3" width="6.8" height="6.8"/>
	</g>
	<g transform="translate(504,120) scale(4.12)">
		<rect x="3.5" y="-9.3" width="6.8" height="6.8"/>
	</g>
	<g transform="translate(240,144) scale(4.12)">
		<rect x="-5.3" y="-8.5" width="6.8" height="6.8"/>
	</g>
	<g transform="translate(288,144) scale(4.12)">
		<rect x="-3.7" y="-8.5" width="6.8" height="6.8"/>
	</g>
	<g transform="translate(384,144) scale(4.12)">
		<rect x="-0.5" y="-8.5" width="6.8" height="6.8"/>
	</g>
	<g transform="translate(408,144) scale(4.12)">
		<rect x="0.3" y="-8.5" width="6.8" height="6.8"/>
	</g>
	<g transform="translate(432,144) scale(4.12)">
		<rect x="1.1" y="-8.5" width="6.8" height="6.8"/>
	</g>
	<g transform="translate(504,144) scale(4.12)">
		<rect x="3.5" y="-8.5" width="6.8" height="6.8"/>
	</g>
	<g transform="translate(240,168) scale(4.12)">
		<rect x="-5.3" y="-7.7" width="6.8" height="6.8"/>
	</g>
	<g transform="translate(288,168) scale(4.12)">
		<rect x="-3.7" y="-7.7" width="6.8" height="6.8"/>
	</g>
	<g transform="translate(336,168) scale(4.12)">
		<rect x="-2.1" y="-7.7" width="6.8" height="6.8"/>
	</g>
	<g transform="translate(360,168) scale(4.12)">
		<rect x="-1.3" y="-7.7" width="6.8" height="6.8"/>
	</g>
	<g transform="translate(408,168) scale(4.12)">
		<rect x="0.3" y="-7.7" width="6.8" height="6.8"/>
	</g>
	<g transform="translate(432,168) scale(4.12)">
		<rect x="1.1" y="-7.7" width="6.8" height="6.8"/>
	</g>
	<g transform="translate(480,168) scale(4.12)">
		<rect x="2.7" y="-7.7" width="6.8" height="6.8"/>
	</g>
	<g transform="translate(528,168) scale(4.12)">
		<rect x="4.3" y="-7.7" width="6.8" height="6.8"/>
	</g>
	<g transform="translate(240,192) scale(4.12)">
		<rect x="-5.3" y="-6.9" width="6.8" height="6.8"/>
	</g>
	<g transform="translate(288,192) scale(4.12)">
		<rect x="-3.7" y="-6.9" width="6.8" height="6.8"/>
	</g>
	<g transform="translate(336,192) scale(4.12)">
		<rect x="-2.1" y="-6.9" width="6.8" height="6.8"/>
	</g>
	<g transform="translate(384,192) scale(4.12)">
		<rect x="-0.5" y="-6.9" width="6.8" height="6.8"/>
	</g>
	<g transform="translate(432,192) scale(4.12)">
		<rect x="1.1" y="-6.9" width="6.8" height="6.8"/>
	</g>
	<g transform="translate(480,192) scale(4.12)">
		<rect x="2.7" y="-6.9" width="6.8" height="6.8"/>
	</g>
	<g transform="translate(528,192) scale(4.12)">
		<rect x="4.3" y="-6.9" width="6.8" height="6.8"/>
	</g>
	<g transform="translate(288,216) scale(4.12)">
		<rect x="-3.7" y="-6.1" width="6.8" height="6.8"/>
	</g>
	<g transform="translate(312,216) scale(4.12)">
		<rect x="-2.9" y="-6.1" width="6.8" height="6.8"/>
	</g>
	<g transform="translate(432,216) scale(4.12)">
		<rect x="1.1" y="-6.1" width="6.8" height="6.8"/>
	</g>
	<g transform="translate(528,216) scale(4.12)">
		<rect x="4.3" y="-6.1" width="6.8" height="6.8"/>
	</g>
	<g transform="translate(72,240) scale(4.12)">
		<rect x="-10.9" y="-5.3" width="6.8" height="6.8"/>
	</g>
	<g transform="translate(96,240) scale(4.12)">
		<rect x="-10.1" y="-5.3" width="6.8" height="6.8"/>
	</g>
	<g transform="translate(120,240) scale(4.12)">
		<rect x="-9.3" y="-5.3" width="6.8" height="6.8"/>
	</g>
	<g transform="translate(144,240) scale(4.12)">
		<rect x="-8.5" y="-5.3" width="6.8" height="6.8"/>
	</g>
	<g transform="translate(168,240) scale(4.12)">
		<rect x="-7.7" y="-5.3" width="6.8" height="6.8"/>
	</g>
	<g transform="translate(192,240) scale(4.12)">
		<rect x="-6.9" y="-5.3" width="6.8" height="6.8"/>
	</g>
	<g transform="translate(216,240) scale(4.12)">
		<rect x="-6.1" y="-5.3" width="6.8" height="6.8"/>
	</g>
	<g transform="translate(264,240) scale(4.12)">
		<rect x="-4.5" y="-5.3" width="6.8" height="6.8"/>
	</g>
	<g transform="translate(336,240) scale(4.12)">
		<rect x="-2.1" y="-5.3" width="6.8" height="6.8"/>
	</g>
	<g transform="translate(384,240) scale(4.12)">
		<rect x="-0.5" y="-5.3" width="6.8" height="6.8"/>
	</g>
	<g transform="translate(408,240) scale(4.12)">
		<rect x="0.3" y="-5.3" width="6.8" height="6.8"/>
	</g>
	<g transform="translate(480,240) scale(4.12)">
		<rect x="2.7" y="-5.3" width="6.8" height="6.8"/>
	</g>
	<g transform="translate(600,240) scale(4.12)">
		<rect x="6.7" y="-5.3" width="6.8" height="6.8"/>
	</g>
	<g transform="translate(624,240) scale(4.12)">
		<rect x="7.5" y="-5.3" width="6.8" height="6.8"/>
	</g>
	<g transform="translate(720,240) scale(4.12)">
		<rect x="10.7" y="-5.3" width="6.8" height="6.8"/>
	</g>
	<g transform="translate(72,264) scale(4.12)">
		<rect x="-10.9" y="-4.5" width="6.8" height="6.8"/>
	</g>
	<g transform="translate(96,264) scale(4.12)">
		<rect x="-10.1" y="-4.5" width="6.8" height="6.8"/>
	</g>
	<g transform="translate(144,264) scale(4.12)">
		<rect x="-8.5" y="-4.5" width="6.8" height="6.8"/>
	</g>
	<g transform="translate(168,264) scale(4.12)">
		<rect x="-7.7" y="-4.5" width="6.8" height="6.8"/>
	</g>
	<g transform="translate(240,264) scale(4.12)">
		<rect x="-5.3" y="-4.5" width="6.8" height="6.8"/>
	</g>
	<g transform="translate(288,264) scale(4.12)">
		<rect x="-3.7" y="-4.5" width="6.8" height="6.8"/>
	</g>
	<g transform="translate(312,264) scale(4.12)">
		<rect x="-2.9" y="-4.5" width="6.8" height="6.8"/>
	</g>
	<g transform="translate(336,264) scale(4.12)">
		<rect x="-2.1" y="-4.5" width="6.8" height="6.8"/>
	</g>
	<g transform="translate(408,264) scale(4.12)">
		<rect x="0.3" y="-4.5" width="6.8" height="6.8"/>
	</g>
	<g transform="translate(576,264) scale(4.12)">
		<rect x="5.9" y="-4.5" width="6.8" height="6.8"/>
	</g>
	<g transform="translate(600,264) scale(4.12)">
		<rect x="6.7" y="-4.5" width="6.8" height="6.8"/>
	</g>
	<g transform="translate(624,264) scale(4.12)">
		<rect x="7.5" y="-4.5" width="6.8" height="6.8"/>
	</g>
	<g transform="translate(648,264) scale(4.12)">
		<rect x="8.3" y="-4.5" width="6.8" height="6.8"/>
	</g>
	<g transform="translate(672,264) scale(4.12)">
		<rect x="9.1" y="-4.5" width="6.8" height="6.8"/>
	</g>
	<g transform="translate(720,264) scale(4.12)">
		<rect x="10.7" y="-4.5" width="6.8" height="6.8"/>
	</g>
	<g transform="translate(72,288) scale(4.12)">
		<rect x="-10.9" y="-3.7" width="6.8" height="6.8"/>
	</g>
	<g transform="translate(120,288) scale(4.12)">
		<rect x="-9.3" y="-3.7" width="6.8" height="6.8"/>
	</g>
	<g transform="translate(168,288) scale(4.12)">
		<rect x="-7.7" y="-3.7" width="6.8" height="6.8"/>
	</g>
	<g transform="translate(192,288) scale(4.12)">
		<rect x="-6.9" y="-3.7" width="6.8" height="6.8"/>
	</g>
	<g transform="translate(216,288) scale(4.12)">
		<rect x="-6.1" y="-3.7" width="6.8" height="6.8"/>
	</g>
	<g transform="translate(240,288) scale(4.12)">
		<rect x="-5.3" y="-3.7" width="6.8" height="6.8"/>
	</g>
	<g transform="translate(264,288) scale(4.12)">
		<rect x="-4.5" y="-3.7" width="6.8" height="6.8"/>
	</g>
	<g transform="translate(288,288) scale(4.12)">
		<rect x="-3.7" y="-3.7" width="6.8" height="6.8"/>
	</g>
	<g transform="translate(360,288) scale(4.12)">
		<rect x="-1.3" y="-3.7" width="6.8" height="6.8"/>
	</g>
	<g transform="translate(384,288) scale(4.12)">
		<rect x="-0.5" y="-3.7" width="6.8" height="6.8"/>
	</g>
	<g transform="translate(408,288) scale(4.12)">
		<rect x="0.3" y="-3.7" width="6.8" height="6.8"/>
	</g>
	<g transform="translate(432,288) scale(4.12)">
		<rect x="1.1" y="-3.7" width="6.8" height="6.8"/>
	</g>
	<g transform="translate(480,288) scale(4.12)">
		<rect x="2.7" y="-3.7" width="6.8" height="6.8"/>
	</g>
	<g transform="translate(528,288) scale(4.12)">
		<rect x="4.3" y="-3.7" width="6.8" height="6.8"/>
	</g>
	<g transform="translate(552,288) scale(4.12)">
		<rect x="5.1" y="-3.7" width="6.8" height="6.8"/>
	</g>
	<g transform="translate(576,288) scale(4.12)">
		<rect x="5.9" y="-3.7" width="6.8" height="6.8"/>
	</g>
	<g transform="translate(648,288) scale(4.12)">
		<rect x="8.3" y="-3.7" width="6.8" height="6.8"/>
	</g>
	<g transform="translate(672,288) scale(4.12)">
		<rect x="9.1" y="-3.7" width="6.8" height="6.8"/>
	</g>
	<g transform="translate(48,312) scale(4.12)">
		<rect x="-11.7" y="-2.9" width="6.8" height="6.8"/>
	</g>
	<g transform="translate(72,312) scale(4.12)">
		<rect x="-10.9" y="-2.9" width="6.8" height="6.8"/>
	</g>
	<g transform="translate(96,312) scale(4.12)">
		<rect x="-10.1" y="-2.9" width="6.8" height="6.8"/>
	</g>
	<g transform="translate(120,312) scale(4.12)">
		<rect x="-9.3" y="-2.9" width="6.8" height="6.8"/>
	</g>
	<g transform="translate(264,312) scale(4.12)">
		<rect x="-4.5" y="-2.9" width="6.8" height="6.8"/>
	</g>
	<g transform="translate(288,312) scale(4.12)">
		<rect x="-3.7" y="-2.9" width="6.8" height="6.8"/>
	</g>
	<g transform="translate(336,312) scale(4.12)">
		<rect x="-2.1" y="-2.9" width="6.8" height="6.8"/>
	</g>
	<g transform="translate(360,312) scale(4.12)">
		<rect x="-1.3" y="-2.9" width="6.8" height="6.8"/>
	</g>
	<g transform="translate(432,312) scale(4.12)">
		<rect x="1.1" y="-2.9" width="6.8" height="6.8"/>
	</g>
	<g transform="translate(552,312) scale(4.12)">
		<rect x="5.1" y="-2.9" width="6.8" height="6.8"/>
	</g>
	<g transform="translate(576,312) scale(4.12)">
		<rect x="5.9" y="-2.9" width="6.8" height="6.8"/>
	</g>
	<g transform="translate(600,312) scale(4.12)">
		<rect x="6.7" y="-2.9" width="6.8" height="6.8"/>
	</g>
	<g transform="translate(648,312) scale(4.12)">
		<rect x="8.3" y="-2.9" width="6.8" height="6.8"/>
	</g>
	<g transform="translate(696,312) scale(4.12)">
		<rect x="9.9" y="-2.9" width="6.8" height="6.8"/>
	</g>
	<g transform="translate(72,336) scale(4.12)">
		<rect x="-10.9" y="-2.1" width="6.8" height="6.8"/>
	</g>
	<g transform="translate(120,336) scale(4.12)">
		<rect x="-9.3" y="-2.1" width="6.8" height="6.8"/>
	</g>
	<g transform="translate(144,336) scale(4.12)">
		<rect x="-8.5" y="-2.1" width="6.8" height="6.8"/>
	</g>
	<g transform="translate(192,336) scale(4.12)">
		<rect x="-6.9" y="-2.1" width="6.8" height="6.8"/>
	</g>
	<g transform="translate(264,336) scale(4.12)">
		<rect x="-4.5" y="-2.1" width="6.8" height="6.8"/>
	</g>
	<g transform="translate(408,336) scale(4.12)">
		<rect x="0.3" y="-2.1" width="6.8" height="6.8"/>
	</g>
	<g transform="translate(432,336) scale(4.12)">
		<rect x="1.1" y="-2.1" width="6.8" height="6.8"/>
	</g>
	<g transform="translate(456,336) scale(4.12)">
		<rect x="1.9" y="-2.1" width="6.8" height="6.8"/>
	</g>
	<g transform="translate(504,336) scale(4.12)">
		<rect x="3.5" y="-2.1" width="6.8" height="6.8"/>
	</g>
	<g transform="translate(552,336) scale(4.12)">
		<rect x="5.1" y="-2.1" width="6.8" height="6.8"/>
	</g>
	<g transform="translate(600,336) scale(4.12)">
		<rect x="6.7" y="-2.1" width="6.8" height="6.8"/>
	</g>
	<g transform="translate(648,336) scale(4.12)">
		<rect x="8.3" y="-2.1" width="6.8" height="6.8"/>
	</g>
	<g transform="translate(672,336) scale(4.12)">
		<rect x="9.1" y="-2.1" width="6.8" height="6.8"/>
	</g>
	<g transform="translate(696,336) scale(4.12)">
		<rect x="9.9" y="-2.1" width="6.8" height="6.8"/>
	</g>
	<g transform="translate(720,336) scale(4.12)">
		<rect x="10.7" y="-2.1" width="6.8" height="6.8"/>
	</g>
	<g transform="translate(96,360) scale(4.12)">
		<rect x="-10.1" y="-1.3" width="6.8" height="6.8"/>
	</g>
	<g transform="translate(120,360) scale(4.12)">
		<rect x="-9.3" y="-1.3" width="6.8" height="6.8"/>
	</g>
	<g transform="translate(168,360) scale(4.12)">
		<rect x="-7.7" y="-1.3" width="6.8" height="6.8"/>
	</g>
	<g transform="translate(264,360) scale(4.12)">
		<rect x="-4.5" y="-1.3" width="6.8" height="6.8"/>
	</g>
	<g transform="translate(384,360) scale(4.12)">
		<rect x="-0.5" y="-1.3" width="6.8" height="6.8"/>
	</g>
	<g transform="translate(408,360) scale(4.12)">
		<rect x="0.3" y="-1.3" width="6.8" height="6.8"/>
	</g>
	<g transform="translate(432,360) scale(4.12)">
		<rect x="1.1" y="-1.3" width="6.8" height="6.8"/>
	</g>
	<g transform="translate(456,360) scale(4.12)">
		<rect x="1.9" y="-1.3" width="6.8" height="6.8"/>
	</g>
	<g transform="translate(504,360) scale(4.12)">
		<rect x="3.5" y="-1.3" width="6.8" height="6.8"/>
	</g>
	<g transform="translate(528,360) scale(4.12)">
		<rect x="4.3" y="-1.3" width="6.8" height="6.8"/>
	</g>
	<g transform="translate(552,360) scale(4.12)">
		<rect x="5.1" y="-1.3" width="6.8" height="6.8"/>
	</g>
	<g transform="translate(576,360) scale(4.12)">
		<rect x="5.9" y="-1.3" width="6.8" height="6.8"/>
	</g>
	<g transform="translate(624,360) scale(4.12)">
		<rect x="7.5" y="-1.3" width="6.8" height="6.8"/>
	</g>
	<g transform="translate(648,360) scale(4.12)">
		<rect x="8.3" y="-1.3" width="6.8" height="6.8"/>
	</g>
	<g transform="translate(696,360) scale(4.12)">
		<rect x="9.9" y="-1.3" width="6.8" height="6.8"/>
	</g>
	<g transform="translate(720,360) scale(4.12)">
		<rect x="10.7" y="-1.3" width="6.8" height="6.8"/>
	</g>
	<g transform="translate(48,384) scale(4.12)">
		<rect x="-11.7" y="-0.5" width="6.8" height="6.8"/>
	</g>
	<g transform="translate(72,384) scale(4.12)">
		<rect x="-10.9" y="-0.5" width="6.8" height="6.8"/>
	</g>
	<g transform="translate(96,384) scale(4.12)">
		<rect x="-10.1" y="-0.5" width="6.8" height="6.8"/>
	</g>
	<g transform="translate(192,384) scale(4.12)">
		<rect x="-6.9" y="-0.5" width="6.8" height="6.8"/>
	</g>
	<g transform="translate(216,384) scale(4.12)">
		<rect x="-6.1" y="-0.5" width="6.8" height="6.8"/>
	</g>
	<g transform="translate(240,384) scale(4.12)">
		<rect x="-5.3" y="-0.5" width="6.8" height="6.8"/>
	</g>
	<g transform="translate(312,384) scale(4.12)">
		<rect x="-2.9" y="-0.5" width="6.8" height="6.8"/>
	</g>
	<g transform="translate(336,384) scale(4.12)">
		<rect x="-2.1" y="-0.5" width="6.8" height="6.8"/>
	</g>
	<g transform="translate(408,384) scale(4.12)">
		<rect x="0.3" y="-0.5" width="6.8" height="6.8"/>
	</g>
	<g transform="translate(456,384) scale(4.12)">
		<rect x="1.9" y="-0.5" width="6.8" height="6.8"/>
	</g>
	<g transform="translate(528,384) scale(4.12)">
		<rect x="4.3" y="-0.5" width="6.8" height="6.8"/>
	</g>
	<g transform="translate(552,384) scale(4.12)">
		<rect x="5.1" y="-0.5" width="6.8" height="6.8"/>
	</g>
	<g transform="translate(576,384) scale(4.12)">
		<rect x="5.9" y="-0.5" width="6.8" height="6.8"/>
	</g>
	<g transform="translate(600,384) scale(4.12)">
		<rect x="6.7" y="-0.5" width="6.8" height="6.8"/>
	</g>
	<g transform="translate(696,384) scale(4.12)">
		<rect x="9.9" y="-0.5" width="6.8" height="6.8"/>
	</g>
	<g transform="translate(168,408) scale(4.12)">
		<rect x="-7.7" y="0.3" width="6.8" height="6.8"/>
	</g>
	<g transform="translate(216,408) scale(4.12)">
		<rect x="-6.1" y="0.3" width="6.8" height="6.8"/>
	</g>
	<g transform="translate(240,408) scale(4.12)">
		<rect x="-5.3" y="0.3" width="6.8" height="6.8"/>
	</g>
	<g transform="translate(336,408) scale(4.12)">
		<rect x="-2.1" y="0.3" width="6.8" height="6.8"/>
	</g>
	<g transform="translate(384,408) scale(4.12)">
		<rect x="-0.5" y="0.3" width="6.8" height="6.8"/>
	</g>
	<g transform="translate(456,408) scale(4.12)">
		<rect x="1.9" y="0.3" width="6.8" height="6.8"/>
	</g>
	<g transform="translate(480,408) scale(4.12)">
		<rect x="2.7" y="0.3" width="6.8" height="6.8"/>
	</g>
	<g transform="translate(528,408) scale(4.12)">
		<rect x="4.3" y="0.3" width="6.8" height="6.8"/>
	</g>
	<g transform="translate(624,408) scale(4.12)">
		<rect x="7.5" y="0.3" width="6.8" height="6.8"/>
	</g>
	<g transform="translate(648,408) scale(4.12)">
		<rect x="8.3" y="0.3" width="6.8" height="6.8"/>
	</g>
	<g transform="translate(72,432) scale(4.12)">
		<rect x="-10.9" y="1.1" width="6.8" height="6.8"/>
	</g>
	<g transform="translate(144,432) scale(4.12)">
		<rect x="-8.5" y="1.1" width="6.8" height="6.8"/>
	</g>
	<g transform="translate(168,432) scale(4.12)">
		<rect x="-7.7" y="1.1" width="6.8" height="6.8"/>
	</g>
	<g transform="translate(192,432) scale(4.12)">
		<rect x="-6.9" y="1.1" width="6.8" height="6.8"/>
	</g>
	<g transform="translate(216,432) scale(4.12)">
		<rect x="-6.1" y="1.1" width="6.8" height="6.8"/>
	</g>
	<g transform="translate(240,432) scale(4.12)">
		<rect x="-5.3" y="1.1" width="6.8" height="6.8"/>
	</g>
	<g transform="translate(264,432) scale(4.12)">
		<rect x="-4.5" y="1.1" width="6.8" height="6.8"/>
	</g>
	<g transform="translate(288,432) scale(4.12)">
		<rect x="-3.7" y="1.1" width="6.8" height="6.8"/>
	</g>
	<g transform="translate(312,432) scale(4.12)">
		<rect x="-2.9" y="1.1" width="6.8" height="6.8"/>
	</g>
	<g transform="translate(360,432) scale(4.12)">
		<rect x="-1.3" y="1.1" width="6.8" height="6.8"/>
	</g>
	<g transform="translate(432,432) scale(4.12)">
		<rect x="1.1" y="1.1" width="6.8" height="6.8"/>
	</g>
	<g transform="translate(504,432) scale(4.12)">
		<rect x="3.5" y="1.1" width="6.8" height="6.8"/>
	</g>
	<g transform="translate(528,432) scale(4.12)">
		<rect x="4.3" y="1.1" width="6.8" height="6.8"/>
	</g>
	<g transform="translate(624,432) scale(4.12)">
		<rect x="7.5" y="1.1" width="6.8" height="6.8"/>
	</g>
	<g transform="translate(648,432) scale(4.12)">
		<rect x="8.3" y="1.1" width="6.8" height="6.8"/>
	</g>
	<g transform="translate(672,432) scale(4.12)">
		<rect x="9.1" y="1.1" width="6.8" height="6.8"/>
	</g>
	<g transform="translate(720,432) scale(4.12)">
		<rect x="10.7" y="1.1" width="6.8" height="6.8"/>
	</g>
	<g transform="translate(48,456) scale(4.12)">
		<rect x="-11.7" y="1.9" width="6.8" height="6.8"/>
	</g>
	<g transform="translate(72,456) scale(4.12)">
		<rect x="-10.9" y="1.9" width="6.8" height="6.8"/>
	</g>
	<g transform="translate(120,456) scale(4.12)">
		<rect x="-9.3" y="1.9" width="6.8" height="6.8"/>
	</g>
	<g transform="translate(144,456) scale(4.12)">
		<rect x="-8.5" y="1.9" width="6.8" height="6.8"/>
	</g>
	<g transform="translate(240,456) scale(4.12)">
		<rect x="-5.3" y="1.9" width="6.8" height="6.8"/>
	</g>
	<g transform="translate(264,456) scale(4.12)">
		<rect x="-4.5" y="1.9" width="6.8" height="6.8"/>
	</g>
	<g transform="translate(384,456) scale(4.12)">
		<rect x="-0.5" y="1.9" width="6.8" height="6.8"/>
	</g>
	<g transform="translate(408,456) scale(4.12)">
		<rect x="0.3" y="1.9" width="6.8" height="6.8"/>
	</g>
	<g transform="translate(480,456) scale(4.12)">
		<rect x="2.7" y="1.9" width="6.8" height="6.8"/>
	</g>
	<g transform="translate(504,456) scale(4.12)">
		<rect x="3.5" y="1.9" width="6.8" height="6.8"/>
	</g>
	<g transform="translate(528,456) scale(4.12)">
		<rect x="4.3" y="1.9" width="6.8" height="6.8"/>
	</g>
	<g transform="translate(576,456) scale(4.12)">
		<rect x="5.9" y="1.9" width="6.8" height="6.8"/>
	</g>
	<g transform="translate(600,456) scale(4.12)">
		<rect x="6.7" y="1.9" width="6.8" height="6.8"/>
	</g>
	<g transform="translate(624,456) scale(4.12)">
		<rect x="7.5" y="1.9" width="6.8" height="6.8"/>
	</g>
	<g transform="translate(672,456) scale(4.12)">
		<rect x="9.1" y="1.9" width="6.8" height="6.8"/>
	</g>
	<g transform="translate(696,456) scale(4.12)">
		<rect x="9.9" y="1.9" width="6.8" height="6.8"/>
	</g>
	<g transform="translate(720,456) scale(4.12)">
		<rect x="10.7" y="1.9" width="6.8" height="6.8"/>
	</g>
	<g transform="translate(48,480) scale(4.12)">
		<rect x="-11.7" y="2.7" width="6.8" height="6.8"/>
	</g>
	<g transform="translate(96,480) scale(4.12)">
		<rect x="-10.1" y="2.7" width="6.8" height="6.8"/>
	</g>
	<g transform="translate(192,480) scale(4.12)">
		<rect x="-6.9" y="2.7" width="6.8" height="6.8"/>
	</g>
	<g transform="translate(216,480) scale(4.12)">
		<rect x="-6.1" y="2.7" width="6.8" height="6.8"/>
	</g>
	<g transform="translate(240,480) scale(4.12)">
		<rect x="-5.3" y="2.7" width="6.8" height="6.8"/>
	</g>
	<g transform="translate(288,480) scale(4.12)">
		<rect x="-3.7" y="2.7" width="6.8" height="6.8"/>
	</g>
	<g transform="translate(336,480) scale(4.12)">
		<rect x="-2.1" y="2.7" width="6.8" height="6.8"/>
	</g>
	<g transform="translate(360,480) scale(4.12)">
		<rect x="-1.3" y="2.7" width="6.8" height="6.8"/>
	</g>
	<g transform="translate(408,480) scale(4.12)">
		<rect x="0.3" y="2.7" width="6.8" height="6.8"/>
	</g>
	<g transform="translate(432,480) scale(4.12)">
		<rect x="1.1" y="2.7" width="6.8" height="6.8"/>
	</g>
	<g transform="translate(456,480) scale(4.12)">
		<rect x="1.9" y="2.7" width="6.8" height="6.8"/>
	</g>
	<g transform="translate(480,480) scale(4.12)">
		<rect x="2.7" y="2.7" width="6.8" height="6.8"/>
	</g>
	<g transform="translate(528,480) scale(4.12)">
		<rect x="4.3" y="2.7" width="6.8" height="6.8"/>
	</g>
	<g transform="translate(576,480) scale(4.12)">
		<rect x="5.9" y="2.7" width="6.8" height="6.8"/>
	</g>
	<g transform="translate(600,480) scale(4.12)">
		<rect x="6.7" y="2.7" width="6.8" height="6.8"/>
	</g>
	<g transform="translate(672,480) scale(4.12)">
		<rect x="9.1" y="2.7" width="6.8" height="6.8"/>
	</g>
	<g transform="translate(48,504) scale(4.12)">
		<rect x="-11.7" y="3.5" width="6.8" height="6.8"/>
	</g>
	<g transform="translate(168,504) scale(4.12)">
		<rect x="-7.7" y="3.5" width="6.8" height="6.8"/>
	</g>
	<g transform="translate(216,504) scale(4.12)">
		<rect x="-6.1" y="3.5" width="6.8" height="6.8"/>
	</g>
	<g transform="translate(288,504) scale(4.12)">
		<rect x="-3.7" y="3.5" width="6.8" height="6.8"/>
	</g>
	<g transform="translate(336,504) scale(4.12)">
		<rect x="-2.1" y="3.5" width="6.8" height="6.8"/>
	</g>
	<g transform="translate(360,504) scale(4.12)">
		<rect x="-1.3" y="3.5" width="6.8" height="6.8"/>
	</g>
	<g transform="translate(408,504) scale(4.12)">
		<rect x="0.3" y="3.5" width="6.8" height="6.8"/>
	</g>
	<g transform="translate(480,504) scale(4.12)">
		<rect x="2.7" y="3.5" width="6.8" height="6.8"/>
	</g>
	<g transform="translate(504,504) scale(4.12)">
		<rect x="3.5" y="3.5" width="6.8" height="6.8"/>
	</g>
	<g transform="translate(576,504) scale(4.12)">
		<rect x="5.9" y="3.5" width="6.8" height="6.8"/>
	</g>
	<g transform="translate(600,504) scale(4.12)">
		<rect x="6.7" y="3.5" width="6.8" height="6.8"/>
	</g>
	<g transform="translate(624,504) scale(4.12)">
		<rect x="7.5" y="3.5" width="6.8" height="6.8"/>
	</g>
	<g transform="translate(648,504) scale(4.12)">
		<rect x="8.3" y="3.5" width="6.8" height="6.8"/>
	</g>
	<g transform="translate(696,504) scale(4.12)">
		<rect x="9.9" y="3.5" width="6.8" height="6.8"/>
	</g>
	<g transform="translate(720,504) scale(4.12)">
		<rect x="10.7" y="3.5" width="6.8" height="6.8"/>
	</g>
	<g transform="translate(48,528) scale(4.12)">
		<rect x="-11.7" y="4.3" width="6.8" height="6.8"/>
	</g>
	<g transform="translate(96,528) scale(4.12)">
		<rect x="-10.1" y="4.3" width="6.8" height="6.8"/>
	</g>
	<g transform="translate(120,528) scale(4.12)">
		<rect x="-9.3" y="4.3" width="6.8" height="6.8"/>
	</g>
	<g transform="translate(144,528) scale(4.12)">
		<rect x="-8.5" y="4.3" width="6.8" height="6.8"/>
	</g>
	<g transform="translate(168,528) scale(4.12)">
		<rect x="-7.7" y="4.3" width="6.8" height="6.8"/>
	</g>
	<g transform="translate(192,528) scale(4.12)">
		<rect x="-6.9" y="4.3" width="6.8" height="6.8"/>
	</g>
	<g transform="translate(216,528) scale(4.12)">
		<rect x="-6.1" y="4.3" width="6.8" height="6.8"/>
	</g>
	<g transform="translate(240,528) scale(4.12)">
		<rect x="-5.3" y="4.3" width="6.8" height="6.8"/>
	</g>
	<g transform="translate(264,528) scale(4.12)">
		<rect x="-4.5" y="4.3" width="6.8" height="6.8"/>
	</g>
	<g transform="translate(288,528) scale(4.12)">
		<rect x="-3.7" y="4.3" width="6.8" height="6.8"/>
	</g>
	<g transform="translate(312,528) scale(4.12)">
		<rect x="-2.9" y="4.3" width="6.8" height="6.8"/>
	</g>
	<g transform="translate(336,528) scale(4.12)">
		<rect x="-2.1" y="4.3" width="6.8" height="6.8"/>
	</g>
	<g transform="translate(384,528) scale(4.12)">
		<rect x="-0.5" y="4.3" width="6.8" height="6.8"/>
	</g>
	<g transform="translate(408,528) scale(4.12)">
		<rect x="0.3" y="4.3" width="6.8" height="6.8"/>
	</g>
	<g transform="translate(456,528) scale(4.12)">
		<rect x="1.9" y="4.3" width="6.8" height="6.8"/>
	</g>
	<g transform="translate(480,528) scale(4.12)">
		<rect x="2.7" y="4.3" width="6.8" height="6.8"/>
	</g>
	<g transform="translate(504,528) scale(4.12)">
		<rect x="3.5" y="4.3" width="6.8" height="6.8"/>
	</g>
	<g transform="translate(528,528) scale(4.12)">
		<rect x="4.3" y="4.3" width="6.8" height="6.8"/>
	</g>
	<g transform="translate(552,528) scale(4.12)">
		<rect x="5.1" y="4.3" width="6.8" height="6.8"/>
	</g>
	<g transform="translate(576,528) scale(4.12)">
		<rect x="5.9" y="4.3" width="6.8" height="6.8"/>
	</g>
	<g transform="translate(600,528) scale(4.12)">
		<rect x="6.7" y="4.3" width="6.8" height="6.8"/>
	</g>
	<g transform="translate(624,528) scale(4.12)">
		<rect x="7.5" y="4.3" width="6.8" height="6.8"/>
	</g>
	<g transform="translate(696,528) scale(4.12)">
		<rect x="9.9" y="4.3" width="6.8" height="6.8"/>
	</g>
	<g transform="translate(720,528) scale(4.12)">
		<rect x="10.7" y="4.3" width="6.8" height="6.8"/>
	</g>
	<g transform="translate(240,552) scale(4.12)">
		<rect x="-5.3" y="5.1" width="6.8" height="6.8"/>
	</g>
	<g transform="translate(288,552) scale(4.12)">
		<rect x="-3.7" y="5.1" width="6.8" height="6.8"/>
	</g>
	<g transform="translate(336,552) scale(4.12)">
		<rect x="-2.1" y="5.1" width="6.8" height="6.8"/>
	</g>
	<g transform="translate(360,552) scale(4.12)">
		<rect x="-1.3" y="5.1" width="6.8" height="6.8"/>
	</g>
	<g transform="translate(432,552) scale(4.12)">
		<rect x="1.1" y="5.1" width="6.8" height="6.8"/>
	</g>
	<g transform="translate(480,552) scale(4.12)">
		<rect x="2.7" y="5.1" width="6.8" height="6.8"/>
	</g>
	<g transform="translate(528,552) scale(4.12)">
		<rect x="4.3" y="5.1" width="6.8" height="6.8"/>
	</g>
	<g transform="translate(624,552) scale(4.12)">
		<rect x="7.5" y="5.1" width="6.8" height="6.8"/>
	</g>
	<g transform="translate(648,552) scale(4.12)">
		<rect x="8.3" y="5.1" width="6.8" height="6.8"/>
	</g>
	<g transform="translate(696,552) scale(4.12)">
		<rect x="9.9" y="5.1" width="6.8" height="6.8"/>
	</g>
	<g transform="translate(720,552) scale(4.12)">
		<rect x="10.7" y="5.1" width="6.8" height="6.8"/>
	</g>
	<g transform="translate(240,576) scale(4.12)">
		<rect x="-5.3" y="5.9" width="6.8" height="6.8"/>
	</g>
	<g transform="translate(264,576) scale(4.12)">
		<rect x="-4.5" y="5.9" width="6.8" height="6.8"/>
	</g>
	<g transform="translate(360,576) scale(4.12)">
		<rect x="-1.3" y="5.9" width="6.8" height="6.8"/>
	</g>
	<g transform="translate(384,576) scale(4.12)">
		<rect x="-0.5" y="5.9" width="6.8" height="6.8"/>
	</g>
	<g transform="translate(408,576) scale(4.12)">
		<rect x="0.3" y="5.9" width="6.8" height="6.8"/>
	</g>
	<g transform="translate(432,576) scale(4.12)">
		<rect x="1.1" y="5.9" width="6.8" height="6.8"/>
	</g>
	<g transform="translate(480,576) scale(4.12)">
		<rect x="2.7" y="5.9" width="6.8" height="6.8"/>
	</g>
	<g transform="translate(504,576) scale(4.12)">
		<rect x="3.5" y="5.9" width="6.8" height="6.8"/>
	</g>
	<g transform="translate(528,576) scale(4.12)">
		<rect x="4.3" y="5.9" width="6.8" height="6.8"/>
	</g>
	<g transform="translate(576,576) scale(4.12)">
		<rect x="5.9" y="5.9" width="6.8" height="6.8"/>
	</g>
	<g transform="translate(624,576) scale(4.12)">
		<rect x="7.5" y="5.9" width="6.8" height="6.8"/>
	</g>
	<g transform="translate(240,600) scale(4.12)">
		<rect x="-5.3" y="6.7" width="6.8" height="6.8"/>
	</g>
	<g transform="translate(288,600) scale(4.12)">
		<rect x="-3.7" y="6.7" width="6.8" height="6.8"/>
	</g>
	<g transform="translate(504,600) scale(4.12)">
		<rect x="3.5" y="6.7" width="6.8" height="6.8"/>
	</g>
	<g transform="translate(528,600) scale(4.12)">
		<rect x="4.3" y="6.7" width="6.8" height="6.8"/>
	</g>
	<g transform="translate(624,600) scale(4.12)">
		<rect x="7.5" y="6.7" width="6.8" height="6.8"/>
	</g>
	<g transform="translate(648,600) scale(4.12)">
		<rect x="8.3" y="6.7" width="6.8" height="6.8"/>
	</g>
	<g transform="translate(720,600) scale(4.12)">
		<rect x="10.7" y="6.7" width="6.8" height="6.8"/>
	</g>
	<g transform="translate(240,624) scale(4.12)">
		<rect x="-5.3" y="7.5" width="6.8" height="6.8"/>
	</g>
	<g transform="translate(264,624) scale(4.12)">
		<rect x="-4.5" y="7.5" width="6.8" height="6.8"/>
	</g>
	<g transform="translate(312,624) scale(4.12)">
		<rect x="-2.9" y="7.5" width="6.8" height="6.8"/>
	</g>
	<g transform="translate(336,624) scale(4.12)">
		<rect x="-2.1" y="7.5" width="6.8" height="6.8"/>
	</g>
	<g transform="translate(360,624) scale(4.12)">
		<rect x="-1.3" y="7.5" width="6.8" height="6.8"/>
	</g>
	<g transform="translate(408,624) scale(4.12)">
		<rect x="0.3" y="7.5" width="6.8" height="6.8"/>
	</g>
	<g transform="translate(480,624) scale(4.12)">
		<rect x="2.7" y="7.5" width="6.8" height="6.8"/>
	</g>
	<g transform="translate(528,624) scale(4.12)">
		<rect x="4.3" y="7.5" width="6.8" height="6.8"/>
	</g>
	<g transform="translate(552,624) scale(4.12)">
		<rect x="5.1" y="7.5" width="6.8" height="6.8"/>
	</g>
	<g transform="translate(576,624) scale(4.12)">
		<rect x="5.9" y="7.5" width="6.8" height="6.8"/>
	</g>
	<g transform="translate(600,624) scale(4.12)">
		<rect x="6.7" y="7.5" width="6.8" height="6.8"/>
	</g>
	<g transform="translate(624,624) scale(4.12)">
		<rect x="7.5" y="7.5" width="6.8" height="6.8"/>
	</g>
	<g transform="translate(648,624) scale(4.12)">
		<rect x="8.3" y="7.5" width="6.8" height="6.8"/>
	</g>
	<g transform="translate(672,624) scale(4.12)">
		<rect x="9.1" y="7.5" width="6.8" height="6.8"/>
	</g>
	<g transform="translate(720,624) scale(4.12)">
		<rect x="10.7" y="7.5" width="6.8" height="6.8"/>
	</g>
	<g transform="translate(240,648) scale(4.12)">
		<rect x="-5.3" y="8.3" width="6.8" height="6.8"/>
	</g>
	<g transform="translate(264,648) scale(4.12)">
		<rect x="-4.5" y="8.3" width="6.8" height="6.8"/>
	</g>
	<g transform="translate(288,648) scale(4.12)">
		<rect x="-3.7" y="8.3" width="6.8" height="6.8"/>
	</g>
	<g transform="translate(312,648) scale(4.12)">
		<rect x="-2.9" y="8.3" width="6.8" height="6.8"/>
	</g>
	<g transform="translate(336,648) scale(4.12)">
		<rect x="-2.1" y="8.3" width="6.8" height="6.8"/>
	</g>
	<g transform="translate(408,648) scale(4.12)">
		<rect x="0.3" y="8.3" width="6.8" height="6.8"/>
	</g>
	<g transform="translate(432,648) scale(4.12)">
		<rect x="1.1" y="8.3" width="6.8" height="6.8"/>
	</g>
	<g transform="translate(456,648) scale(4.12)">
		<rect x="1.9" y="8.3" width="6.8" height="6.8"/>
	</g>
	<g transform="translate(504,648) scale(4.12)">
		<rect x="3.5" y="8.3" width="6.8" height="6.8"/>
	</g>
	<g transform="translate(528,648) scale(4.12)">
		<rect x="4.3" y="8.3" width="6.8" height="6.8"/>
	</g>
	<g transform="translate(552,648) scale(4.12)">
		<rect x="5.1" y="8.3" width="6.8" height="6.8"/>
	</g>
	<g transform="translate(600,648) scale(4.12)">
		<rect x="6.7" y="8.3" width="6.8" height="6.8"/>
	</g>
	<g transform="translate(672,648) scale(4.12)">
		<rect x="9.1" y="8.3" width="6.8" height="6.8"/>
	</g>
	<g transform="translate(240,672) scale(4.12)">
		<rect x="-5.3" y="9.1" width="6.8" height="6.8"/>
	</g>
	<g transform="translate(312,672) scale(4.12)">
		<rect x="-2.9" y="9.1" width="6.8" height="6.8"/>
	</g>
	<g transform="translate(360,672) scale(4.12)">
		<rect x="-1.3" y="9.1" width="6.8" height="6.8"/>
	</g>
	<g transform="translate(384,672) scale(4.12)">
		<rect x="-0.5" y="9.1" width="6.8" height="6.8"/>
	</g>
	<g transform="translate(456,672) scale(4.12)">
		<rect x="1.9" y="9.1" width="6.8" height="6.8"/>
	</g>
	<g transform="translate(504,672) scale(4.12)">
		<rect x="3.5" y="9.1" width="6.8" height="6.8"/>
	</g>
	<g transform="translate(528,672) scale(4.12)">
		<rect x="4.3" y="9.1" width="6.8" height="6.8"/>
	</g>
	<g transform="translate(552,672) scale(4.12)">
		<rect x="5.1" y="9.1" width="6.8" height="6.8"/>
	</g>
	<g transform="translate(576,672) scale(4.12)">
		<rect x="5.9" y="9.1" width="6.8" height="6.8"/>
	</g>
	<g transform="translate(600,672) scale(4.12)">
		<rect x="6.7" y="9.1" width="6.8" height="6.8"/>
	</g>
	<g transform="translate(624,672) scale(4.12)">
		<rect x="7.5" y="9.1" width="6.8" height="6.8"/>
	</g>
	<g transform="translate(696,672) scale(4.12)">
		<rect x="9.9" y="9.1" width="6.8" height="6.8"/>
	</g>
	<g transform="translate(240,696) scale(4.12)">
		<rect x="-5.3" y="9.9" width="6.8" height="6.8"/>
	</g>
	<g transform="translate(264,696) scale(4.12)">
		<rect x="-4.5" y="9.9" width="6.8" height="6.8"/>
	</g>
	<g transform="translate(288,696) scale(4.12)">
		<rect x="-3.7" y="9.9" width="6.8" height="6.8"/>
	</g>
	<g transform="translate(336,696) scale(4.12)">
		<rect x="-2.1" y="9.9" width="6.8" height="6.8"/>
	</g>
	<g transform="translate(384,696) scale(4.12)">
		<rect x="-0.5" y="9.9" width="6.8" height="6.8"/>
	</g>
	<g transform="translate(432,696) scale(4.12)">
		<rect x="1.1" y="9.9" width="6.8" height="6.8"/>
	</g>
	<g transform="translate(480,696) scale(4.12)">
		<rect x="2.7" y="9.9" width="6.8" height="6.8"/>
	</g>
	<g transform="translate(552,696) scale(4.12)">
		<rect x="5.1" y="9.9" width="6.8" height="6.8"/>
	</g>
	<g transform="translate(624,696) scale(4.12)">
		<rect x="7.5" y="9.9" width="6.8" height="6.8"/>
	</g>
	<g transform="translate(648,696) scale(4.12)">
		<rect x="8.3" y="9.9" width="6.8" height="6.8"/>
	</g>
	<g transform="translate(696,696) scale(4.12)">
		<rect x="9.9" y="9.9" width="6.8" height="6.8"/>
	</g>
	<g transform="translate(288,720) scale(4.12)">
		<rect x="-3.7" y="10.7" width="6.8" height="6.8"/>
	</g>
	<g transform="translate(384,720) scale(4.12)">
		<rect x="-0.5" y="10.7" width="6.8" height="6.8"/>
	</g>
	<g transform="translate(456,720) scale(4.12)">
		<rect x="1.9" y="10.7" width="6.8" height="6.8"/>
	</g>
	<g transform="translate(504,720) scale(4.12)">
		<rect x="3.5" y="10.7" width="6.8" height="6.8"/>
	</g>
	<g transform="translate(576,720) scale(4.12)">
		<rect x="5.9" y="10.7" width="6.8" height="6.8"/>
	</g>
	<g transform="translate(624,720) scale(4.12)">
		<rect x="7.5" y="10.7" width="6.8" height="6.8"/>
	</g>
	<g transform="translate(648,720) scale(4.12)">
		<rect x="8.3" y="10.7" width="6.8" height="6.8"/>
	</g>
	<g transform="translate(48,48)">
		<g transform="scale(12)">
			<path d="M-4-4v15.9h15.9V-4H-4z M9.6,9.6H-1.7V-1.7H9.6V9.6z"/>
		</g>
	</g>
	<g transform="translate(576,48)">
		<g transform="scale(12)">
			<path d="M2-4v15.9h15.9V-4H2z M15.7,9.6H4.3V-1.7h11.4V9.6z"/>
		</g>
	</g>
	<g transform="translate(48,576)">
		<g transform="scale(12)">
			<path d="M-4,2v15.9h15.9V2H-4z M9.6,15.7H-1.7V4.3H9.6V15.7z"/>
		</g>
	</g>
	<g transform="translate(96,96)">
		<g transform="scale(12)">
			<rect x="-3.5" y="-3.5" width="6.8" height="6.8"/>
		</g>
	</g>
	<g transform="translate(624,96)">
		<g transform="scale(12)">
			<rect x="2.6" y="-3.5" width="6.8" height="6.8"/>
		</g>
	</g>
	<g transform="translate(96,624)">
		<g transform="scale(12)">
			<rect x="-3.5" y="2.6" width="6.8" height="6.8"/>
		</g>
	</g>
</g>
</svg>
